<svg xmlns="http://www.w3.org/2000/svg" xmlns:xlink="http://www.w3.org/1999/xlink" width="2000" zoomAndPan="magnify" viewBox="0 0 1500 299.999988" height="400" preserveAspectRatio="xMidYMid meet" version="1.0"><defs><g/><clipPath id="44d5098a0c"><path d="M 54.640625 34.945312 L 234.238281 34.945312 L 234.238281 265.105469 L 54.640625 265.105469 Z M 54.640625 34.945312 " clip-rule="nonzero"/></clipPath></defs><g clip-path="url(#44d5098a0c)"><path fill="#cc0000" d="M 139.238281 46.039062 C 140.609375 46.257812 141.707031 45.984375 142.421875 45.214844 C 143.300781 44.339844 143.410156 43.457031 142.753906 42.472656 C 141.765625 42.140625 141.160156 42.363281 140.828125 43.132812 C 140.5 44.117188 140.117188 44.558594 139.675781 44.558594 L 139.675781 40.550781 C 139.402344 40.550781 139.019531 40.441406 138.578125 40.21875 C 138.140625 39.890625 137.703125 39.835938 137.261719 40.054688 C 137.207031 41.15625 137.425781 42.195312 138.085938 43.296875 C 138.855469 44.449219 139.238281 45.378906 139.238281 46.039062 Z M 167.671875 43.132812 C 167.78125 42.800781 164.871094 44.996094 159 49.71875 C 165.089844 69.75 168 86.875 167.671875 101.039062 C 182.710938 99.828125 194.785156 96.371094 204.007812 90.554688 C 216.027344 83.089844 219.375 72.988281 213.996094 60.363281 C 211.199219 64.207031 206.039062 65.742188 198.574219 64.976562 C 190.722656 64.261719 186.390625 61.1875 185.507812 55.808594 C 189.792969 47.90625 195.226562 43.457031 201.757812 42.472656 C 204.996094 42.03125 210.375 42.800781 217.839844 44.722656 C 224.703125 46.480469 230.023438 46.699219 233.757812 45.546875 C 232.714844 50.046875 230.519531 52.789062 227.171875 53.722656 C 231.234375 58.992188 233.59375 65.742188 234.25 74.035156 L 234.25 151.8125 C 234.25 194.078125 234.085938 219.652344 233.757812 228.546875 C 231.835938 227.558594 228.265625 224.703125 223 219.871094 L 223 101.53125 C 220.640625 102.683594 219.375 105.976562 219.15625 111.300781 C 219.046875 113.003906 219.101562 115.53125 219.324219 118.878906 C 219.429688 122.71875 219.484375 125.410156 219.484375 126.890625 C 219.484375 177.28125 219.648438 206.921875 220.089844 215.8125 C 218.9375 216.25 217.125 215.371094 214.65625 213.121094 C 210.867188 209.882812 208.949219 208.234375 208.835938 208.128906 L 208.835938 111.136719 C 207.027344 111.355469 205.984375 112.617188 205.765625 114.871094 C 205.710938 115.582031 205.65625 116.570312 205.65625 117.726562 C 205.710938 119.261719 205.765625 120.085938 205.765625 120.304688 C 205.710938 129.636719 205.710938 143.742188 205.765625 162.625 C 205.875 182.4375 205.875 196.597656 205.765625 205.050781 C 201.8125 202.800781 198.132812 199.730469 194.675781 195.886719 C 194.566406 192.152344 194.566406 179.144531 194.675781 156.804688 C 194.785156 140.230469 194.566406 127 194.074219 117.285156 C 192.207031 118.328125 191.273438 120.6875 191.164062 124.3125 C 191.164062 125.519531 191.21875 127.054688 191.328125 128.976562 C 191.546875 131.226562 191.660156 132.765625 191.660156 133.476562 C 191.660156 139.953125 191.660156 149.835938 191.660156 163.28125 C 191.546875 177.167969 191.546875 187.046875 191.660156 192.867188 C 191.328125 192.757812 187.539062 189.902344 180.40625 184.304688 C 180.296875 181.835938 180.351562 171.242188 180.570312 152.46875 C 180.625 138.96875 180.296875 128.425781 179.417969 120.796875 C 177.933594 121.566406 177.109375 123.429688 177.003906 126.453125 C 177.003906 127.386719 177.058594 128.757812 177.167969 130.457031 C 177.277344 132.378906 177.332031 133.699219 177.332031 134.464844 C 177.332031 139.296875 177.332031 146.816406 177.332031 156.96875 C 177.332031 167.890625 177.332031 175.851562 177.332031 180.792969 C 176.671875 180.464844 173.160156 177.71875 166.738281 172.558594 C 166.296875 139.789062 166.136719 123.542969 166.242188 123.871094 C 166.464844 122.773438 164.433594 133.585938 160.097656 156.367188 C 158.726562 163.390625 158.011719 166.957031 158.011719 166.957031 C 158.230469 168.769531 162.621094 174.425781 171.238281 183.867188 C 172.171875 184.796875 174.695312 187.378906 178.757812 191.550781 C 181.558594 194.457031 183.808594 196.929688 185.507812 198.960938 C 184.796875 199.617188 183.699219 199.730469 182.328125 199.289062 C 180.515625 198.742188 179.359375 198.464844 178.921875 198.464844 C 179.472656 199.5625 183.863281 205.328125 192.097656 215.8125 C 202.195312 211.035156 206.917969 208.839844 206.257812 209.222656 C 210.757812 210.652344 213.121094 215.8125 213.339844 224.867188 C 212.789062 224.539062 211.746094 223.769531 210.15625 222.617188 C 208.835938 221.519531 207.796875 220.753906 206.917969 220.3125 C 204.226562 219.160156 201.207031 219.160156 197.75 220.3125 C 198.519531 221.960938 200.933594 223.824219 204.996094 225.964844 C 209.386719 228.214844 212.183594 230.082031 213.339844 231.621094 C 213.007812 233.648438 212.40625 236.066406 211.417969 238.808594 C 209.9375 242.597656 209.058594 244.902344 208.835938 245.726562 C 208.179688 244.902344 207.796875 243.253906 207.574219 240.894531 C 207.355469 238.152344 207.082031 236.394531 206.75 235.625 C 204.171875 235.953125 201.59375 234.691406 199.015625 231.890625 C 195.828125 228.382812 193.6875 226.40625 192.589844 225.964844 C 192.480469 228.65625 192.535156 232.222656 192.753906 236.722656 C 193.085938 241.554688 193.195312 245.066406 193.085938 247.207031 C 192.042969 247.535156 190.339844 248.25 188.089844 249.457031 C 186.058594 250.390625 184.359375 251.050781 182.929688 251.378906 C 182.929688 251.050781 183.972656 248.636719 186.003906 244.132812 C 186.003906 244.574219 185.015625 244.410156 182.929688 243.640625 C 185.125 233.265625 186.277344 227.171875 186.496094 225.472656 C 185.015625 225.363281 182.984375 226.019531 180.570312 227.394531 C 177.332031 229.257812 175.246094 230.246094 174.257812 230.464844 L 174.257812 237.546875 C 173.707031 237.875 172.554688 237.273438 170.746094 235.792969 C 168.933594 234.144531 167.726562 232.550781 167.175781 230.960938 C 167.066406 230.632812 167.066406 228.269531 167.175781 223.878906 C 168.824219 223.550781 171.625 222.726562 175.738281 221.464844 C 179.253906 220.476562 182.160156 219.816406 184.414062 219.378906 C 182.160156 215.316406 177.605469 210.925781 170.746094 206.203125 L 170.746094 217.292969 C 169.042969 215.589844 166.847656 212.515625 164.160156 208.128906 C 161.46875 203.84375 159.273438 200.769531 157.574219 198.960938 C 159.054688 218.777344 160.097656 229.753906 160.757812 231.890625 C 163.773438 242.871094 170.636719 247.648438 181.335938 246.21875 C 179.199219 252.75 174.148438 255.988281 166.242188 255.878906 C 165.035156 255.878906 163.277344 255.386719 160.921875 254.453125 C 158.78125 253.574219 157.351562 253.191406 156.582031 253.300781 C 154.660156 253.519531 152.632812 255.332031 150.488281 258.789062 C 148.238281 262.414062 146.320312 264.496094 144.835938 265.046875 C 142.917969 264.167969 140.996094 262.25 139.074219 259.285156 C 136.933594 255.933594 135.066406 253.796875 133.585938 252.804688 C 129.304688 255.605469 124.199219 256.429688 118.324219 255.222656 C 112.070312 253.957031 108.554688 250.941406 107.679688 246.21875 C 118.546875 247.757812 125.460938 243.035156 128.425781 232.058594 C 128.425781 232.167969 129.6875 221.300781 132.15625 199.453125 C 130.347656 200.386719 128.042969 203.296875 125.242188 208.128906 C 122.332031 212.957031 120.082031 215.863281 118.492188 216.800781 L 118.492188 206.644531 C 115.582031 208.179688 110.96875 212.242188 104.660156 218.886719 C 106.359375 219.652344 109.378906 220.476562 113.660156 221.464844 C 117.722656 222.5625 120.6875 223.496094 122.5 224.375 C 123.046875 230.796875 120.523438 235.40625 114.921875 238.207031 C 114.8125 237.21875 114.8125 236.066406 114.921875 234.636719 C 115.03125 233.484375 115.03125 232.441406 114.921875 231.621094 C 113.769531 230.191406 111.851562 228.875 109.160156 227.558594 C 105.589844 225.964844 103.453125 224.921875 102.738281 224.375 C 103.011719 226.84375 103.558594 229.917969 104.328125 233.703125 C 105.371094 238.535156 106.03125 241.5 106.25 242.707031 C 106.46875 243.308594 106.195312 243.695312 105.425781 243.804688 C 104.054688 243.804688 103.453125 243.75 103.671875 243.640625 C 103.890625 244.847656 104.382812 246.164062 105.152344 247.703125 C 105.976562 249.402344 106.523438 250.609375 106.742188 251.378906 C 105.152344 251.160156 103.339844 250.5 101.421875 249.457031 C 99.28125 248.25 97.6875 247.535156 96.589844 247.207031 C 96.589844 235.953125 96.753906 229.039062 97.082031 226.457031 C 95.273438 226.679688 93.132812 228.382812 90.660156 231.621094 C 88.519531 234.363281 85.722656 235.574219 82.261719 235.132812 C 82.375 236.394531 82.261719 238.152344 81.824219 240.292969 C 81.386719 242.433594 81.222656 244.242188 81.328125 245.726562 C 81.109375 245.503906 79.246094 240.839844 75.675781 231.621094 C 77.214844 230.191406 79.957031 228.433594 83.910156 226.296875 C 87.753906 224.265625 90.441406 222.453125 91.921875 220.804688 C 87.203125 218.335938 82.042969 219.707031 76.335938 224.867188 C 75.894531 216.578125 77.871094 211.53125 82.261719 209.71875 C 83.582031 209.828125 88.359375 211.859375 96.589844 215.8125 C 100.761719 212.40625 105.480469 206.589844 110.75 198.464844 C 110.203125 198.464844 109.214844 198.6875 107.679688 199.125 C 106.414062 199.5625 105.207031 199.671875 104.164062 199.453125 C 106.960938 195.226562 111.464844 189.957031 117.667969 183.535156 C 124.417969 176.675781 129.082031 171.515625 131.664062 168.058594 C 129.191406 158.5625 126.613281 143.796875 123.925781 123.871094 C 122.113281 128.152344 121.949219 136.605469 123.429688 149.285156 C 124.859375 161.578125 124.527344 169.703125 122.5 173.546875 C 121.617188 175.25 120.082031 176.675781 117.832031 177.71875 C 114.101562 179.527344 112.070312 180.574219 111.902344 180.792969 C 111.792969 175.523438 111.851562 168.386719 112.070312 159.386719 C 112.234375 149.230469 112.34375 141.929688 112.34375 137.539062 C 112.34375 128.097656 111.851562 122.5 110.75 120.796875 C 108.71875 126.394531 108.0625 136.054688 108.828125 149.890625 C 109.707031 167.617188 109.984375 177.664062 109.761719 180.132812 C 109.597656 183.371094 108.117188 186.007812 105.425781 188.203125 C 105.867188 187.875 103.234375 189.410156 97.578125 192.867188 C 97.6875 186.117188 97.6875 174.699219 97.578125 158.726562 C 97.46875 143.519531 97.46875 132.378906 97.578125 125.296875 C 97.578125 124.75 97.6875 123.980469 97.90625 122.886719 C 98.015625 121.839844 98.070312 121.015625 98.070312 120.46875 C 98.070312 118.765625 97.25 117.671875 95.65625 117.285156 C 94.449219 142.753906 94.066406 161.03125 94.503906 172.117188 C 95.164062 186.0625 95.164062 193.800781 94.503906 195.390625 C 93.734375 197.585938 92.089844 199.511719 89.507812 201.210938 C 88.90625 201.648438 87.808594 202.308594 86.324219 203.296875 C 84.898438 204.066406 83.964844 204.613281 83.417969 205.050781 C 83.523438 196.597656 83.472656 182.4375 83.25 162.625 C 83.03125 143.742188 83.085938 129.800781 83.417969 120.796875 C 83.417969 120.25 83.472656 119.316406 83.582031 117.890625 C 83.691406 116.847656 83.746094 115.96875 83.746094 115.308594 C 83.636719 113.386719 82.8125 112.015625 81.328125 111.136719 C 80.121094 147.585938 79.847656 171.625 80.34375 183.207031 C 81.003906 198.300781 80.835938 206.753906 79.902344 208.621094 C 78.804688 210.542969 75.402344 213.121094 69.585938 216.304688 L 69.585938 113.058594 C 69.585938 112.785156 69.640625 111.6875 69.75 109.875 C 69.859375 108.449219 69.914062 107.351562 69.914062 106.472656 C 69.585938 103.890625 68.484375 102.246094 66.675781 101.53125 C 66.675781 106.417969 66.402344 123.488281 65.90625 152.632812 C 65.46875 175.25 65.523438 192.59375 66.070312 204.558594 C 66.453125 214.109375 66.675781 219.046875 66.675781 219.378906 C 66.070312 221.300781 62.285156 224.15625 55.421875 227.886719 C 55.203125 217.074219 55.257812 194.789062 55.585938 160.976562 C 55.808594 131.28125 55.585938 108.722656 54.929688 93.300781 C 53.996094 72.386719 56.355469 59.707031 62.007812 55.207031 C 57.398438 48.234375 55.203125 45.160156 55.421875 46.039062 C 57.671875 46.589844 64.425781 45.820312 75.675781 43.789062 C 85.226562 42.03125 92.199219 42.800781 96.589844 46.039062 C 101.203125 49.550781 103.558594 52.625 103.671875 55.207031 C 103.78125 57.675781 102.683594 59.816406 100.320312 61.628906 C 98.179688 63.328125 95.382812 64.480469 91.921875 64.976562 C 84.019531 66.292969 78.585938 64.59375 75.675781 59.871094 C 73.042969 63.933594 72 68.488281 72.65625 73.539062 C 73.8125 82.320312 79.957031 89.074219 91.15625 93.792969 C 98.015625 96.8125 108.609375 99.335938 122.992188 101.53125 C 123.59375 96.589844 126.121094 90.5 130.511719 83.308594 C 134.902344 76.449219 137.320312 70.300781 137.757812 64.867188 C 129.304688 65.25 123.484375 63.605469 120.410156 59.871094 C 121.070312 59.652344 121.671875 59.707031 122.332031 60.035156 C 122.992188 60.308594 123.484375 60.421875 123.925781 60.367188 C 117.941406 55.753906 114.539062 52.351562 113.828125 50.210938 C 119.480469 53.832031 126.613281 56.195312 135.175781 57.292969 C 135.289062 54.269531 133.640625 52.570312 130.234375 52.132812 C 127.4375 51.804688 125.019531 52.1875 122.992188 53.285156 C 121.125 50.484375 120.578125 47.082031 121.179688 43.132812 C 121.730469 38.957031 123.375 36.378906 126.011719 35.390625 C 129.027344 35.117188 132.105469 35.609375 135.175781 37.039062 C 135.394531 36.816406 135.890625 36.433594 136.660156 35.886719 C 137.152344 35.335938 137.703125 35.0625 138.25 34.953125 C 140.28125 35.226562 144.835938 37.203125 151.917969 40.714844 C 157.296875 43.296875 162.511719 44.117188 167.671875 43.132812 Z M 167.671875 43.132812 " fill-opacity="1" fill-rule="nonzero"/></g><g fill="#ffffff" fill-opacity="1"><g transform="translate(247.019747, 198.374984)"><g><path d="M 178.78125 -110.84375 L 131.4375 0 L 122.890625 0 L 95.8125 -63.34375 L 68.890625 0 L 60.328125 0 L 12.984375 -110.84375 L 27.078125 -110.84375 L 64.609375 -22.96875 L 95.8125 -96.28125 L 127.15625 -22.96875 L 164.6875 -110.84375 Z M 178.78125 -110.84375 "/></g></g></g><g fill="#ffffff" fill-opacity="1"><g transform="translate(393.325985, 198.374984)"><g><path d="M 25.8125 -29.9375 L 28.03125 -35.15625 L 60.328125 -110.84375 L 68.890625 -110.84375 L 101.1875 -35.15625 L 103.25 -30.09375 L 116.078125 0 L 102.140625 0 L 92.640625 -22.171875 L 36.578125 -22.171875 L 27.078125 0 L 12.984375 0 Z M 64.609375 -87.890625 L 41.96875 -35.15625 L 87.09375 -35.15625 Z M 64.609375 -87.890625 "/></g></g></g><g fill="#ffffff" fill-opacity="1"><g transform="translate(523.009427, 198.374984)"><g><path d="M 109.578125 -79.96875 C 109.578125 -74.269531 108.175781 -69.070312 105.375 -64.375 C 102.582031 -59.675781 98.835938 -55.925781 94.140625 -53.125 C 89.441406 -50.332031 84.242188 -48.9375 78.546875 -48.9375 L 75.21875 -48.9375 L 117.03125 0 L 100.078125 0 L 58.28125 -48.9375 L 25.96875 -48.9375 L 25.96875 0 L 12.984375 0 L 12.984375 -110.84375 L 78.546875 -110.84375 C 84.242188 -110.84375 89.441406 -109.441406 94.140625 -106.640625 C 98.835938 -103.847656 102.582031 -100.101562 105.375 -95.40625 C 108.175781 -90.707031 109.578125 -85.5625 109.578125 -79.96875 Z M 25.96875 -61.921875 L 78.546875 -61.921875 C 81.921875 -61.921875 84.953125 -62.738281 87.640625 -64.375 C 90.335938 -66.007812 92.503906 -68.171875 94.140625 -70.859375 C 95.773438 -73.554688 96.59375 -76.59375 96.59375 -79.96875 C 96.59375 -83.238281 95.773438 -86.242188 94.140625 -88.984375 C 92.503906 -91.734375 90.335938 -93.898438 87.640625 -95.484375 C 84.953125 -97.066406 81.921875 -97.859375 78.546875 -97.859375 L 25.96875 -97.859375 Z M 25.96875 -61.921875 "/></g></g></g><g fill="#ffffff" fill-opacity="1"><g transform="translate(653.484606, 198.374984)"><g><path d="M 109.578125 -79.96875 C 109.578125 -74.90625 108.46875 -70.257812 106.25 -66.03125 C 104.039062 -61.8125 101.085938 -58.273438 97.390625 -55.421875 C 101.085938 -52.578125 104.039062 -49.015625 106.25 -44.734375 C 108.46875 -40.460938 109.578125 -35.84375 109.578125 -30.875 C 109.578125 -25.175781 108.175781 -20.003906 105.375 -15.359375 C 102.582031 -10.710938 98.835938 -6.988281 94.140625 -4.1875 C 89.441406 -1.394531 84.242188 0 78.546875 0 L 12.984375 0 L 12.984375 -110.84375 L 78.546875 -110.84375 C 84.242188 -110.84375 89.441406 -109.441406 94.140625 -106.640625 C 98.835938 -103.847656 102.582031 -100.101562 105.375 -95.40625 C 108.175781 -90.707031 109.578125 -85.5625 109.578125 -79.96875 Z M 96.59375 -30.875 C 96.59375 -34.257812 95.773438 -37.296875 94.140625 -39.984375 C 92.503906 -42.679688 90.3125 -44.847656 87.5625 -46.484375 C 84.820312 -48.117188 81.816406 -48.9375 78.546875 -48.9375 L 25.96875 -48.9375 L 25.96875 -12.828125 L 78.546875 -12.828125 C 81.816406 -12.828125 84.820312 -13.644531 87.5625 -15.28125 C 90.3125 -16.914062 92.503906 -19.101562 94.140625 -21.84375 C 95.773438 -24.59375 96.59375 -27.601562 96.59375 -30.875 Z M 25.96875 -97.859375 L 25.96875 -61.921875 L 78.546875 -61.921875 C 81.816406 -61.921875 84.820312 -62.738281 87.5625 -64.375 C 90.3125 -66.007812 92.503906 -68.171875 94.140625 -70.859375 C 95.773438 -73.554688 96.59375 -76.59375 96.59375 -79.96875 C 96.59375 -83.238281 95.773438 -86.242188 94.140625 -88.984375 C 92.503906 -91.734375 90.3125 -93.898438 87.5625 -95.484375 C 84.820312 -97.066406 81.816406 -97.859375 78.546875 -97.859375 Z M 25.96875 -97.859375 "/></g></g></g><g fill="#ffffff" fill-opacity="1"><g transform="translate(774.300652, 198.374984)"><g><path d="M 25.96875 0 L 12.984375 0 L 12.984375 -110.84375 L 25.96875 -110.84375 Z M 25.96875 0 "/></g></g></g><g fill="#ffffff" fill-opacity="1"><g transform="translate(813.728245, 198.374984)"><g><path d="M 109.578125 -79.96875 C 109.578125 -74.269531 108.175781 -69.070312 105.375 -64.375 C 102.582031 -59.675781 98.835938 -55.925781 94.140625 -53.125 C 89.441406 -50.332031 84.242188 -48.9375 78.546875 -48.9375 L 75.21875 -48.9375 L 117.03125 0 L 100.078125 0 L 58.28125 -48.9375 L 25.96875 -48.9375 L 25.96875 0 L 12.984375 0 L 12.984375 -110.84375 L 78.546875 -110.84375 C 84.242188 -110.84375 89.441406 -109.441406 94.140625 -106.640625 C 98.835938 -103.847656 102.582031 -100.101562 105.375 -95.40625 C 108.175781 -90.707031 109.578125 -85.5625 109.578125 -79.96875 Z M 25.96875 -61.921875 L 78.546875 -61.921875 C 81.921875 -61.921875 84.953125 -62.738281 87.640625 -64.375 C 90.335938 -66.007812 92.503906 -68.171875 94.140625 -70.859375 C 95.773438 -73.554688 96.59375 -76.59375 96.59375 -79.96875 C 96.59375 -83.238281 95.773438 -86.242188 94.140625 -88.984375 C 92.503906 -91.734375 90.335938 -93.898438 87.640625 -95.484375 C 84.953125 -97.066406 81.921875 -97.859375 78.546875 -97.859375 L 25.96875 -97.859375 Z M 25.96875 -61.921875 "/></g></g></g><g fill="#ffffff" fill-opacity="1"><g transform="translate(944.203425, 198.374984)"><g><path d="M 54 -110.84375 C 61.707031 -110.84375 68.910156 -109.414062 75.609375 -106.5625 C 82.316406 -103.71875 88.203125 -99.734375 93.265625 -94.609375 C 98.335938 -89.492188 102.320312 -83.582031 105.21875 -76.875 C 108.125 -70.175781 109.578125 -63.023438 109.578125 -55.421875 C 109.578125 -47.828125 108.125 -40.675781 105.21875 -33.96875 C 102.320312 -27.257812 98.335938 -21.34375 93.265625 -16.21875 C 88.203125 -11.101562 82.316406 -7.117188 75.609375 -4.265625 C 68.910156 -1.421875 61.707031 0 54 0 L 12.984375 0 L 12.984375 -110.84375 Z M 54 -12.828125 C 59.914062 -12.828125 65.429688 -13.9375 70.546875 -16.15625 C 75.671875 -18.375 80.1875 -21.4375 84.09375 -25.34375 C 88 -29.25 91.054688 -33.757812 93.265625 -38.875 C 95.484375 -44 96.59375 -49.515625 96.59375 -55.421875 C 96.59375 -61.234375 95.484375 -66.722656 93.265625 -71.890625 C 91.054688 -77.066406 88 -81.609375 84.09375 -85.515625 C 80.1875 -89.421875 75.671875 -92.453125 70.546875 -94.609375 C 65.429688 -96.773438 59.914062 -97.859375 54 -97.859375 L 25.96875 -97.859375 L 25.96875 -12.828125 Z M 54 -12.828125 "/></g></g></g><g fill="#ffffff" fill-opacity="1"><g transform="translate(1067.394805, 198.374984)"><g/></g></g><g fill="#ffffff" fill-opacity="1"><g transform="translate(1123.136863, 198.374984)"><g><path d="M 12.984375 0 L 12.984375 -110.84375 L 79.171875 -110.84375 C 84.554688 -110.84375 89.46875 -109.523438 93.90625 -106.890625 C 98.34375 -104.253906 101.878906 -100.71875 104.515625 -96.28125 C 107.148438 -91.84375 108.46875 -86.9375 108.46875 -81.5625 C 108.46875 -76.175781 107.148438 -71.265625 104.515625 -66.828125 C 101.878906 -62.390625 98.34375 -58.851562 93.90625 -56.21875 C 89.46875 -53.582031 84.554688 -52.265625 79.171875 -52.265625 L 19.3125 -52.265625 L 19.3125 0 Z M 19.3125 -104.515625 L 19.3125 -58.59375 L 79.171875 -58.59375 C 83.398438 -58.59375 87.253906 -59.617188 90.734375 -61.671875 C 94.222656 -63.734375 97.019531 -66.503906 99.125 -69.984375 C 101.238281 -73.472656 102.296875 -77.332031 102.296875 -81.5625 C 102.296875 -85.78125 101.238281 -89.628906 99.125 -93.109375 C 97.019531 -96.597656 94.222656 -99.367188 90.734375 -101.421875 C 87.253906 -103.484375 83.398438 -104.515625 79.171875 -104.515625 Z M 19.3125 -104.515625 "/></g></g></g><g fill="#ffffff" fill-opacity="1"><g transform="translate(1242.52781, 198.374984)"><g><path d="M 108.46875 -81.5625 C 108.46875 -76.175781 107.148438 -71.265625 104.515625 -66.828125 C 101.878906 -62.390625 98.34375 -58.851562 93.90625 -56.21875 C 89.46875 -53.582031 84.554688 -52.265625 79.171875 -52.265625 L 67.625 -52.265625 L 112.125 0 L 103.890625 0 L 59.390625 -52.265625 L 19.3125 -52.265625 L 19.3125 0 L 12.984375 0 L 12.984375 -110.84375 L 79.171875 -110.84375 C 84.554688 -110.84375 89.46875 -109.523438 93.90625 -106.890625 C 98.34375 -104.253906 101.878906 -100.71875 104.515625 -96.28125 C 107.148438 -91.84375 108.46875 -86.9375 108.46875 -81.5625 Z M 19.3125 -104.515625 L 19.3125 -58.59375 L 79.171875 -58.59375 C 83.398438 -58.59375 87.253906 -59.617188 90.734375 -61.671875 C 94.222656 -63.734375 97.019531 -66.503906 99.125 -69.984375 C 101.238281 -73.472656 102.296875 -77.332031 102.296875 -81.5625 C 102.296875 -85.78125 101.238281 -89.628906 99.125 -93.109375 C 97.019531 -96.597656 94.222656 -99.367188 90.734375 -101.421875 C 87.253906 -103.484375 83.398438 -104.515625 79.171875 -104.515625 Z M 19.3125 -104.515625 "/></g></g></g><g fill="#ffffff" fill-opacity="1"><g transform="translate(1360.018237, 198.374984)"><g><path d="M 68.40625 0 C 60.8125 0 53.660156 -1.421875 46.953125 -4.265625 C 40.242188 -7.117188 34.328125 -11.101562 29.203125 -16.21875 C 24.085938 -21.34375 20.101562 -27.257812 17.25 -33.96875 C 14.40625 -40.675781 12.984375 -47.828125 12.984375 -55.421875 C 12.984375 -63.023438 14.40625 -70.175781 17.25 -76.875 C 20.101562 -83.582031 24.085938 -89.492188 29.203125 -94.609375 C 34.328125 -99.734375 40.242188 -103.71875 46.953125 -106.5625 C 53.660156 -109.414062 60.8125 -110.84375 68.40625 -110.84375 C 76.007812 -110.84375 83.160156 -109.414062 89.859375 -106.5625 C 96.566406 -103.71875 102.476562 -99.734375 107.59375 -94.609375 C 112.71875 -89.492188 116.707031 -83.582031 119.5625 -76.875 C 122.414062 -70.175781 123.84375 -63.023438 123.84375 -55.421875 C 123.84375 -47.828125 122.414062 -40.675781 119.5625 -33.96875 C 116.707031 -27.257812 112.71875 -21.34375 107.59375 -16.21875 C 102.476562 -11.101562 96.566406 -7.117188 89.859375 -4.265625 C 83.160156 -1.421875 76.007812 0 68.40625 0 Z M 68.40625 -104.515625 C 61.65625 -104.515625 55.296875 -103.25 49.328125 -100.71875 C 43.359375 -98.1875 38.128906 -94.675781 33.640625 -90.1875 C 29.160156 -85.695312 25.648438 -80.46875 23.109375 -74.5 C 20.578125 -68.539062 19.3125 -62.179688 19.3125 -55.421875 C 19.3125 -48.671875 20.578125 -42.3125 23.109375 -36.34375 C 25.648438 -30.375 29.160156 -25.144531 33.640625 -20.65625 C 38.128906 -16.175781 43.359375 -12.664062 49.328125 -10.125 C 55.296875 -7.59375 61.65625 -6.328125 68.40625 -6.328125 C 75.164062 -6.328125 81.523438 -7.59375 87.484375 -10.125 C 93.453125 -12.664062 98.679688 -16.175781 103.171875 -20.65625 C 107.660156 -25.144531 111.171875 -30.375 113.703125 -36.34375 C 116.234375 -42.3125 117.5 -48.671875 117.5 -55.421875 C 117.5 -62.179688 116.234375 -68.539062 113.703125 -74.5 C 111.171875 -80.46875 107.660156 -85.695312 103.171875 -90.1875 C 98.679688 -94.675781 93.453125 -98.1875 87.484375 -100.71875 C 81.523438 -103.25 75.164062 -104.515625 68.40625 -104.515625 Z M 68.40625 -104.515625 "/></g></g></g></svg>